<svg width="512" height="512" viewBox="0 0 512 512" fill="none" xmlns="http://www.w3.org/2000/svg">
<rect x="3" y="3" width="506" height="506" fill="#F5F5F5" stroke="black" stroke-width="6"/>
<path d="M259.196 426.955V415.545H312.953V426.955H292.914V481H279.235V426.955H259.196ZM321.806 481V415.545H347.63C352.573 415.545 356.792 416.43 360.286 418.198C363.802 419.945 366.476 422.428 368.308 425.645C370.162 428.841 371.089 432.602 371.089 436.927C371.089 441.273 370.151 445.013 368.276 448.145C366.401 451.256 363.685 453.642 360.126 455.304C356.589 456.966 352.307 457.797 347.278 457.797H329.988V446.675H345.041C347.683 446.675 349.878 446.312 351.625 445.588C353.372 444.864 354.672 443.777 355.524 442.328C356.398 440.879 356.835 439.079 356.835 436.927C356.835 434.754 356.398 432.921 355.524 431.43C354.672 429.938 353.362 428.809 351.593 428.042C349.846 427.254 347.641 426.859 344.977 426.859H335.645V481H321.806ZM357.154 451.213L373.422 481H358.145L342.229 451.213H357.154ZM380.869 481V415.545H424.974V426.955H394.707V442.552H422.705V453.962H394.707V469.59H425.102V481H380.869ZM471.484 434.37C471.228 431.792 470.131 429.789 468.192 428.362C466.253 426.934 463.622 426.22 460.298 426.22C458.039 426.22 456.132 426.54 454.577 427.179C453.021 427.797 451.828 428.66 450.997 429.768C450.188 430.876 449.783 432.133 449.783 433.539C449.74 434.711 449.985 435.734 450.518 436.607C451.072 437.481 451.828 438.237 452.787 438.876C453.746 439.494 454.854 440.038 456.111 440.506C457.368 440.954 458.71 441.337 460.138 441.657L466.019 443.063C468.874 443.702 471.494 444.555 473.881 445.62C476.267 446.685 478.334 447.996 480.081 449.551C481.828 451.107 483.181 452.939 484.14 455.048C485.12 457.158 485.621 459.576 485.642 462.303C485.621 466.309 484.598 469.782 482.574 472.722C480.571 475.641 477.673 477.911 473.881 479.53C470.11 481.128 465.561 481.927 460.234 481.927C454.95 481.927 450.347 481.117 446.427 479.498C442.528 477.879 439.481 475.482 437.286 472.307C435.113 469.111 433.973 465.158 433.867 460.45H447.258C447.407 462.644 448.036 464.477 449.144 465.947C450.273 467.396 451.775 468.493 453.65 469.239C455.546 469.963 457.688 470.325 460.074 470.325C462.418 470.325 464.453 469.984 466.178 469.303C467.926 468.621 469.279 467.673 470.237 466.458C471.196 465.244 471.676 463.848 471.676 462.271C471.676 460.801 471.239 459.565 470.365 458.564C469.513 457.562 468.256 456.71 466.594 456.007C464.953 455.304 462.94 454.665 460.553 454.089L453.426 452.3C447.908 450.957 443.551 448.859 440.355 446.004C437.159 443.148 435.571 439.303 435.593 434.466C435.571 430.503 436.626 427.04 438.757 424.079C440.909 421.117 443.86 418.805 447.61 417.143C451.36 415.482 455.621 414.651 460.394 414.651C465.252 414.651 469.492 415.482 473.114 417.143C476.757 418.805 479.591 421.117 481.615 424.079C483.639 427.04 484.683 430.471 484.747 434.37H471.484Z" fill="#0A0808"/>
<path d="M259.196 426.955H253.196V432.955H259.196V426.955ZM259.196 415.545V409.545H253.196V415.545H259.196ZM312.953 415.545H318.953V409.545H312.953V415.545ZM312.953 426.955V432.955H318.953V426.955H312.953ZM292.914 426.955V420.955H286.914V426.955H292.914ZM292.914 481V487H298.914V481H292.914ZM279.235 481H273.235V487H279.235V481ZM279.235 426.955H285.235V420.955H279.235V426.955ZM265.196 426.955V415.545H253.196V426.955H265.196ZM259.196 421.545H312.953V409.545H259.196V421.545ZM306.953 415.545V426.955H318.953V415.545H306.953ZM312.953 420.955H292.914V432.955H312.953V420.955ZM286.914 426.955V481H298.914V426.955H286.914ZM292.914 475H279.235V487H292.914V475ZM285.235 481V426.955H273.235V481H285.235ZM279.235 420.955H259.196V432.955H279.235V420.955ZM321.806 481H315.806V487H321.806V481ZM321.806 415.545V409.545H315.806V415.545H321.806ZM360.286 418.198L357.577 423.552L357.596 423.561L357.616 423.571L360.286 418.198ZM368.308 425.645L363.095 428.614L363.106 428.635L363.118 428.655L368.308 425.645ZM368.276 448.145L373.415 451.242L373.42 451.234L373.424 451.227L368.276 448.145ZM360.126 455.304L357.587 449.868L357.575 449.874L360.126 455.304ZM329.988 457.797H323.988V463.797H329.988V457.797ZM329.988 446.675V440.675H323.988V446.675H329.988ZM351.625 445.588L353.923 451.131L353.923 451.131L351.625 445.588ZM355.524 442.328L350.386 439.23L350.369 439.258L350.353 439.286L355.524 442.328ZM355.524 431.43L350.315 434.407L350.331 434.434L350.347 434.462L355.524 431.43ZM351.593 428.042L349.125 433.511L349.165 433.529L349.206 433.546L351.593 428.042ZM335.645 426.859V420.859H329.645V426.859H335.645ZM335.645 481V487H341.645V481H335.645ZM357.154 451.213L362.42 448.337L360.714 445.213H357.154V451.213ZM373.422 481V487H383.535L378.688 478.124L373.422 481ZM358.145 481L352.853 483.828L354.548 487H358.145V481ZM342.229 451.213V445.213H332.22L336.937 454.041L342.229 451.213ZM327.806 481V415.545H315.806V481H327.806ZM321.806 421.545H347.63V409.545H321.806V421.545ZM347.63 421.545C351.872 421.545 355.114 422.305 357.577 423.552L362.996 412.845C358.47 410.554 353.274 409.545 347.63 409.545V421.545ZM357.616 423.571C360.132 424.821 361.889 426.497 363.095 428.614L373.522 422.675C371.063 418.358 367.472 415.069 362.956 412.825L357.616 423.571ZM363.118 428.655C364.357 430.791 365.089 433.477 365.089 436.927H377.089C377.089 431.726 375.967 426.891 373.498 422.635L363.118 428.655ZM365.089 436.927C365.089 440.396 364.348 443.026 363.128 445.063L373.424 451.227C375.955 446.999 377.089 442.15 377.089 436.927H365.089ZM363.138 445.048C361.928 447.054 360.158 448.667 357.587 449.868L362.666 460.74C367.211 458.617 370.875 455.457 373.415 451.242L363.138 445.048ZM357.575 449.874C355.031 451.069 351.668 451.797 347.278 451.797V463.797C352.945 463.797 358.148 462.863 362.678 460.734L357.575 449.874ZM347.278 451.797H329.988V463.797H347.278V451.797ZM335.988 457.797V446.675H323.988V457.797H335.988ZM329.988 452.675H345.041V440.675H329.988V452.675ZM345.041 452.675C348.181 452.675 351.22 452.251 353.923 451.131L349.327 440.046C348.536 440.374 347.186 440.675 345.041 440.675V452.675ZM353.923 451.131C356.716 449.972 359.101 448.082 360.696 445.37L350.353 439.286C350.243 439.472 350.028 439.755 349.327 440.046L353.923 451.131ZM360.662 445.426C362.234 442.82 362.835 439.878 362.835 436.927H350.835C350.835 438.28 350.562 438.939 350.386 439.23L360.662 445.426ZM362.835 436.927C362.835 433.958 362.236 431.017 360.701 428.397L350.347 434.462C350.56 434.825 350.835 435.549 350.835 436.927H362.835ZM360.734 428.453C359.161 425.7 356.786 423.754 353.981 422.537L349.206 433.546C349.937 433.864 350.183 434.176 350.315 434.407L360.734 428.453ZM354.061 422.573C351.298 421.326 348.181 420.859 344.977 420.859V432.859C347.1 432.859 348.394 433.181 349.125 433.511L354.061 422.573ZM344.977 420.859H335.645V432.859H344.977V420.859ZM329.645 426.859V481H341.645V426.859H329.645ZM335.645 475H321.806V487H335.645V475ZM351.888 454.089L368.156 483.876L378.688 478.124L362.42 448.337L351.888 454.089ZM373.422 475H358.145V487H373.422V475ZM363.437 478.172L347.521 448.385L336.937 454.041L352.853 483.828L363.437 478.172ZM342.229 457.213H357.154V445.213H342.229V457.213ZM380.869 481H374.869V487H380.869V481ZM380.869 415.545V409.545H374.869V415.545H380.869ZM424.974 415.545H430.974V409.545H424.974V415.545ZM424.974 426.955V432.955H430.974V426.955H424.974ZM394.707 426.955V420.955H388.707V426.955H394.707ZM394.707 442.552H388.707V448.552H394.707V442.552ZM422.705 442.552H428.705V436.552H422.705V442.552ZM422.705 453.962V459.962H428.705V453.962H422.705ZM394.707 453.962V447.962H388.707V453.962H394.707ZM394.707 469.59H388.707V475.59H394.707V469.59ZM425.102 469.59H431.102V463.59H425.102V469.59ZM425.102 481V487H431.102V481H425.102ZM386.869 481V415.545H374.869V481H386.869ZM380.869 421.545H424.974V409.545H380.869V421.545ZM418.974 415.545V426.955H430.974V415.545H418.974ZM424.974 420.955H394.707V432.955H424.974V420.955ZM388.707 426.955V442.552H400.707V426.955H388.707ZM394.707 448.552H422.705V436.552H394.707V448.552ZM416.705 442.552V453.962H428.705V442.552H416.705ZM422.705 447.962H394.707V459.962H422.705V447.962ZM388.707 453.962V469.59H400.707V453.962H388.707ZM394.707 475.59H425.102V463.59H394.707V475.59ZM419.102 469.59V481H431.102V469.59H419.102ZM425.102 475H380.869V487H425.102V475ZM471.484 434.37L465.513 434.962L466.049 440.37H471.484V434.37ZM454.577 427.179L456.792 432.755L456.825 432.742L456.858 432.729L454.577 427.179ZM450.997 429.768L446.197 426.168L446.175 426.198L446.153 426.228L450.997 429.768ZM449.783 433.539L455.779 433.757L455.783 433.648V433.539H449.783ZM450.518 436.607L445.395 439.731L445.423 439.776L445.451 439.82L450.518 436.607ZM452.787 438.876L449.459 443.869L449.498 443.895L449.537 443.92L452.787 438.876ZM456.111 440.506L454.015 446.128L454.057 446.144L454.099 446.159L456.111 440.506ZM460.138 441.657L461.533 435.821L461.491 435.811L461.449 435.802L460.138 441.657ZM466.019 443.063L464.623 448.899L464.665 448.909L464.708 448.918L466.019 443.063ZM473.881 445.62L471.435 451.099L471.435 451.099L473.881 445.62ZM480.081 449.551L484.071 445.07L484.071 445.07L480.081 449.551ZM484.14 455.048L478.678 457.531L478.688 457.554L478.699 457.577L484.14 455.048ZM485.642 462.303L491.642 462.335L491.642 462.296L491.642 462.256L485.642 462.303ZM482.574 472.722L477.632 469.32L477.627 469.328L482.574 472.722ZM473.881 479.53L476.222 485.054L476.229 485.051L476.237 485.048L473.881 479.53ZM446.427 479.498L444.126 485.039L444.136 485.043L446.427 479.498ZM437.286 472.307L432.325 475.681L432.338 475.7L432.351 475.719L437.286 472.307ZM433.867 460.45V454.45H427.729L427.868 460.585L433.867 460.45ZM447.258 460.45L453.244 460.043L452.864 454.45H447.258V460.45ZM449.144 465.947L444.352 469.558L444.381 469.597L444.411 469.635L449.144 465.947ZM453.65 469.239L451.433 474.814L451.471 474.829L451.509 474.844L453.65 469.239ZM466.178 469.303L463.997 463.713L463.986 463.718L463.974 463.722L466.178 469.303ZM470.237 466.458L474.947 470.176L474.947 470.176L470.237 466.458ZM470.365 458.564L465.796 462.453L465.82 462.481L465.844 462.508L470.365 458.564ZM466.594 456.007L464.23 461.522L464.243 461.527L464.256 461.533L466.594 456.007ZM460.553 454.089L459.092 459.909L459.12 459.916L459.147 459.922L460.553 454.089ZM453.426 452.3L454.888 446.48L454.866 446.475L454.844 446.47L453.426 452.3ZM440.355 446.004L436.357 450.478L436.357 450.478L440.355 446.004ZM435.593 434.466L441.592 434.492L441.593 434.463L441.592 434.434L435.593 434.466ZM438.757 424.079L433.903 420.552L433.894 420.563L433.886 420.575L438.757 424.079ZM473.114 417.143L470.612 422.597L470.624 422.602L473.114 417.143ZM481.615 424.079L476.662 427.464L476.662 427.464L481.615 424.079ZM484.747 434.37V440.37H490.846L490.747 434.272L484.747 434.37ZM477.455 433.778C477.045 429.653 475.17 426.048 471.749 423.53L464.635 433.193C465.092 433.53 465.411 433.931 465.513 434.962L477.455 433.778ZM471.749 423.53C468.453 421.103 464.425 420.22 460.298 420.22V432.22C462.818 432.22 464.054 432.765 464.635 433.193L471.749 423.53ZM460.298 420.22C457.51 420.22 454.777 420.61 452.296 421.629L456.858 432.729C457.487 432.47 458.569 432.22 460.298 432.22V420.22ZM452.362 421.603C449.994 422.543 447.818 424.007 446.197 426.168L455.797 433.368C455.839 433.312 456.049 433.05 456.792 432.755L452.362 421.603ZM446.153 426.228C444.573 428.39 443.783 430.894 443.783 433.539H455.783C455.783 433.476 455.787 433.436 455.791 433.414C455.794 433.393 455.797 433.383 455.798 433.381C455.798 433.379 455.799 433.375 455.803 433.368C455.807 433.36 455.818 433.34 455.842 433.308L446.153 426.228ZM443.787 433.321C443.708 435.492 444.164 437.712 445.395 439.731L455.641 433.484C455.709 433.596 455.75 433.707 455.77 433.787C455.787 433.861 455.775 433.861 455.779 433.757L443.787 433.321ZM445.451 439.82C446.503 441.479 447.882 442.818 449.459 443.869L456.115 433.884C455.774 433.657 455.641 433.483 455.585 433.394L445.451 439.82ZM449.537 443.92C450.915 444.808 452.422 445.534 454.015 446.128L458.207 434.885C457.286 434.541 456.577 434.18 456.037 433.833L449.537 443.92ZM454.099 446.159C455.606 446.695 457.184 447.144 458.827 447.512L461.449 435.802C460.236 435.53 459.13 435.212 458.123 434.854L454.099 446.159ZM458.743 447.492L464.623 448.899L467.414 437.228L461.533 435.821L458.743 447.492ZM464.708 448.918C467.219 449.48 469.454 450.214 471.435 451.099L476.327 440.141C473.535 438.895 470.529 437.924 467.329 437.208L464.708 448.918ZM471.435 451.099C473.324 451.942 474.855 452.932 476.092 454.033L484.071 445.07C481.813 443.06 479.211 441.429 476.327 440.141L471.435 451.099ZM476.092 454.033C477.22 455.037 478.069 456.191 478.678 457.531L489.602 452.565C488.294 449.687 486.437 447.176 484.071 445.07L476.092 454.033ZM478.699 457.577C479.26 458.785 479.627 460.334 479.642 462.35L491.642 462.256C491.615 458.818 490.98 455.53 489.581 452.52L478.699 457.577ZM479.642 462.271C479.627 465.226 478.892 467.49 477.632 469.32L487.516 476.125C490.305 472.074 491.615 467.392 491.642 462.335L479.642 462.271ZM477.627 469.328C476.369 471.161 474.446 472.765 471.525 474.012L476.237 485.048C480.901 483.056 484.774 480.122 487.521 476.117L477.627 469.328ZM471.54 474.005C468.696 475.211 464.987 475.927 460.234 475.927V487.927C466.134 487.927 471.524 487.045 476.222 485.054L471.54 474.005ZM460.234 475.927C455.549 475.927 451.757 475.208 448.718 473.952L444.136 485.043C448.938 487.027 454.351 487.927 460.234 487.927V475.927ZM448.728 473.957C445.79 472.736 443.7 471.033 442.222 468.895L432.351 475.719C435.262 479.93 439.266 483.021 444.126 485.039L448.728 473.957ZM442.248 468.933C440.855 466.885 439.951 464.121 439.865 460.314L427.868 460.585C427.995 466.196 429.371 471.337 432.325 475.681L442.248 468.933ZM433.867 466.45H447.258V454.45H433.867V466.45ZM441.272 460.856C441.484 463.983 442.417 466.99 444.352 469.558L453.935 462.336C453.655 461.963 453.33 461.305 453.244 460.043L441.272 460.856ZM444.411 469.635C446.26 472.007 448.667 473.714 451.433 474.814L455.867 463.663C454.883 463.272 454.286 462.785 453.876 462.258L444.411 469.635ZM451.509 474.844C454.197 475.871 457.082 476.325 460.074 476.325V464.325C458.294 464.325 456.895 464.055 455.791 463.634L451.509 474.844ZM460.074 476.325C462.982 476.325 465.797 475.904 468.383 474.883L463.974 463.722C463.108 464.064 461.854 464.325 460.074 464.325V476.325ZM468.36 474.892C470.89 473.904 473.199 472.389 474.947 470.176L465.528 462.74C465.358 462.956 464.961 463.337 463.997 463.713L468.36 474.892ZM474.947 470.176C476.759 467.881 477.676 465.169 477.676 462.271H465.676C465.676 462.442 465.651 462.522 465.642 462.551C465.632 462.579 465.609 462.638 465.528 462.74L474.947 470.176ZM477.676 462.271C477.676 459.517 476.817 456.833 474.887 454.62L465.844 462.508C465.822 462.483 465.792 462.444 465.761 462.391C465.731 462.339 465.707 462.287 465.691 462.241C465.657 462.144 465.676 462.135 465.676 462.271H477.676ZM474.934 454.675C473.294 452.747 471.151 451.42 468.932 450.481L464.256 461.533C465.36 462 465.732 462.378 465.796 462.453L474.934 454.675ZM468.957 450.492C466.917 449.618 464.561 448.884 461.96 448.257L459.147 459.922C461.318 460.446 462.99 460.99 464.23 461.522L468.957 450.492ZM462.015 448.27L454.888 446.48L451.965 458.119L459.092 459.909L462.015 448.27ZM454.844 446.47C449.984 445.287 446.612 443.548 444.352 441.529L436.357 450.478C440.489 454.169 445.832 456.627 452.008 458.13L454.844 446.47ZM444.352 441.529C442.609 439.972 441.578 437.857 441.592 434.492L429.593 434.439C429.565 440.748 431.708 446.324 436.357 450.478L444.352 441.529ZM441.592 434.434C441.577 431.624 442.302 429.425 443.627 427.583L433.886 420.575C430.95 424.656 429.565 429.382 429.593 434.498L441.592 434.434ZM443.61 427.606C445.069 425.598 447.138 423.915 450.041 422.629L445.179 411.658C440.581 413.695 436.748 416.636 433.903 420.552L443.61 427.606ZM450.041 422.629C452.91 421.357 456.323 420.651 460.394 420.651V408.651C454.919 408.651 449.809 409.606 445.179 411.658L450.041 422.629ZM460.394 420.651C464.573 420.651 467.927 421.365 470.612 422.597L475.616 411.69C471.056 409.598 465.93 408.651 460.394 408.651V420.651ZM470.624 422.602C473.391 423.865 475.324 425.507 476.662 427.464L486.569 420.693C483.858 416.727 480.123 413.746 475.604 411.685L470.624 422.602ZM476.662 427.464C477.965 429.372 478.702 431.637 478.748 434.468L490.747 434.272C490.665 429.305 489.314 424.709 486.569 420.693L476.662 427.464ZM484.747 428.37H471.484V440.37H484.747V428.37Z" fill="black"/>
</svg>
