<svg width="512" height="512" viewBox="0 0 512 512" fill="none" xmlns="http://www.w3.org/2000/svg">
<rect width="512" height="512" fill="url(#paint0_linear_15_3)"/>
<path d="M259.196 426.955V415.545H312.953V426.955H292.914V481H279.235V426.955H259.196ZM321.806 481V415.545H347.63C352.573 415.545 356.792 416.43 360.286 418.198C363.802 419.945 366.476 422.428 368.308 425.645C370.162 428.841 371.089 432.602 371.089 436.927C371.089 441.273 370.151 445.013 368.276 448.145C366.401 451.256 363.685 453.642 360.126 455.304C356.589 456.966 352.307 457.797 347.278 457.797H329.988V446.675H345.041C347.683 446.675 349.878 446.312 351.625 445.588C353.372 444.864 354.672 443.777 355.524 442.328C356.398 440.879 356.835 439.079 356.835 436.927C356.835 434.754 356.398 432.921 355.524 431.43C354.672 429.938 353.362 428.809 351.593 428.042C349.846 427.254 347.641 426.859 344.977 426.859H335.645V481H321.806ZM357.154 451.213L373.422 481H358.145L342.229 451.213H357.154ZM380.869 481V415.545H424.974V426.955H394.707V442.552H422.705V453.962H394.707V469.59H425.102V481H380.869ZM471.484 434.37C471.228 431.792 470.131 429.789 468.192 428.362C466.253 426.934 463.622 426.22 460.298 426.22C458.039 426.22 456.132 426.54 454.577 427.179C453.021 427.797 451.828 428.66 450.997 429.768C450.188 430.876 449.783 432.133 449.783 433.539C449.74 434.711 449.985 435.734 450.518 436.607C451.072 437.481 451.828 438.237 452.787 438.876C453.746 439.494 454.854 440.038 456.111 440.506C457.368 440.954 458.71 441.337 460.138 441.657L466.019 443.063C468.874 443.702 471.494 444.555 473.881 445.62C476.267 446.685 478.334 447.996 480.081 449.551C481.828 451.107 483.181 452.939 484.14 455.048C485.12 457.158 485.621 459.576 485.642 462.303C485.621 466.309 484.598 469.782 482.574 472.722C480.571 475.641 477.673 477.911 473.881 479.53C470.11 481.128 465.561 481.927 460.234 481.927C454.95 481.927 450.347 481.117 446.427 479.498C442.528 477.879 439.481 475.482 437.286 472.307C435.113 469.111 433.973 465.158 433.867 460.45H447.258C447.407 462.644 448.036 464.477 449.144 465.947C450.273 467.396 451.775 468.493 453.65 469.239C455.546 469.963 457.688 470.325 460.074 470.325C462.418 470.325 464.453 469.984 466.178 469.303C467.926 468.621 469.279 467.673 470.237 466.458C471.196 465.244 471.676 463.848 471.676 462.271C471.676 460.801 471.239 459.565 470.365 458.564C469.513 457.562 468.256 456.71 466.594 456.007C464.953 455.304 462.94 454.665 460.553 454.089L453.426 452.3C447.908 450.957 443.551 448.859 440.355 446.004C437.159 443.148 435.571 439.303 435.593 434.466C435.571 430.503 436.626 427.04 438.757 424.079C440.909 421.117 443.86 418.805 447.61 417.143C451.36 415.482 455.621 414.651 460.394 414.651C465.252 414.651 469.492 415.482 473.114 417.143C476.757 418.805 479.591 421.117 481.615 424.079C483.639 427.04 484.683 430.471 484.747 434.37H471.484Z" fill="#F5F5F5"/>
<defs>
<linearGradient id="paint0_linear_15_3" x1="256" y1="512" x2="256" y2="5.41202e-05" gradientUnits="userSpaceOnUse">
<stop stop-color="#0A0808"/>
<stop offset="1" stop-color="#585858"/>
</linearGradient>
</defs>
</svg>
